<svg xmlns="http://www.w3.org/2000/svg" xmlns:xlink="http://www.w3.org/1999/xlink" xmlns:serif="http://www.serif.com/" width="100%" height="100%" viewBox="400 290 475 430" version="1.1" xml:space="preserve" style="fill-rule:evenodd;clip-rule:evenodd;stroke-linejoin:round;stroke-miterlimit:2;">
    <g id="Background" transform="matrix(1.224609,0,0,1.224609,0,0)">

        <path d="M550.424,558.501C550.266,558.526 550.152,558.688 549.995,558.714C549.55,558.785 549.089,558.709 548.645,558.786C546.296,559.195 541.059,561.437 532.536,562.76C531.376,562.94 510.393,567.069 482.497,564.54C458.105,562.328 440.141,554.697 436.504,554.41C433.228,554.151 430.171,555.92 428.666,556.901C424.75,559.451 424.621,559.208 420.648,561.698C420.161,562.003 420.138,561.953 414.324,565.114C412.697,565.999 401.825,571.001 394.353,573.053C390.29,574.169 376.758,578.175 364.518,576.347C357.763,575.338 352.346,570.175 356.699,560.601C363.893,544.78 366.54,539.593 369.798,521.545C371.832,510.282 368.692,510.507 361.793,500.305C355.893,491.582 353.782,486.843 353.228,485.599C351.23,481.113 351.054,481.213 349.109,476.688C347.304,472.487 346.337,472.045 341.841,455.399C340.864,451.778 336.572,431.086 337.898,411.525C338.213,406.881 339.955,394.274 341.177,389.412C344.815,374.934 346.669,371.308 349.421,364.47C350.151,362.657 350.22,362.705 355.448,352.475C356.442,350.531 363.391,338.908 370.801,330.781C382.842,317.578 400.378,301.559 431.616,288.784C458.474,277.8 483.49,275.937 485.521,275.75C486.619,275.649 495.71,274.419 511.493,274.787C523.22,275.061 543.419,277.373 555.404,280.808C576.581,286.878 576.621,287.921 583.711,291.005C585.29,291.692 592.42,294.794 602.559,301.405C612.683,308.006 618.517,313.83 623.533,318.463C627.332,321.973 638.761,335.654 645.396,349.554C651.367,362.061 652.921,368.948 654.451,374.514C659.271,392.054 659.407,417.989 654.323,434.452C651.602,443.26 651.73,443.878 648.674,450.596C646.706,454.923 646.034,458.003 643.481,458.212C640.691,458.439 640.705,458.155 608.5,458.254C588.744,458.315 581.893,457.413 570.562,462.624C556.017,469.312 548.117,484.405 548.05,498.509C547.999,509.022 548.035,508.998 548.048,519.501C548.078,543.908 547.45,547.001 549.91,556.427C550.181,557.466 550.165,557.456 550.424,558.501Z" style="fill:rgb(156,102,250);"></path>
        <path d="M684.87,493.429C686.246,502.039 685.573,502.078 685.709,539.498C685.729,545.063 685.611,545.194 684.836,549.567C684.715,550.106 682.783,566.713 665.533,573.575C656.662,577.103 656.37,576.329 615.5,576.42C585.014,576.488 583.515,576.566 577.605,574.239C569.242,570.945 565.084,567.925 560.2,559.665C559.444,558.386 558.885,557.167 557.697,553.448C555.368,544.664 555.857,544.553 555.82,512.5C555.806,500.15 555.383,494.425 558.935,485.678C560.805,481.072 565.917,475.385 567.861,473.955C579.449,465.43 587.123,466.609 603.5,466.518C607.26,466.497 632.933,466.353 650.5,466.523C654.24,466.559 668.762,466.474 678.803,479.269C683.393,485.117 684.278,490.936 684.87,493.429Z" style="fill:rgb(26,6,77);"></path>
        
        
        
        
        
        
        
        
        <path d="M457.605,426.895C454.624,427.529 451.933,428.369 446.496,425.506C444.765,424.594 438.306,419.911 437.672,408.494C436.912,394.815 439.337,390.622 440.112,389.28C440.301,388.954 444.529,379.749 454.508,380.357C464.17,380.946 469.664,390.399 469.861,399.488C470.036,407.603 470.511,417.025 463.566,423.571C461.453,425.563 458.121,426.717 457.605,426.895Z" style="fill:rgb(18,2,56);"></path>
        <path d="M533.844,391.635C534.616,389.952 535.951,386.587 539.524,383.528C544.914,378.912 553.358,379.59 558.105,383.945C565.17,390.425 564.795,399.947 564.642,407.502C564.457,416.69 559.897,424.173 553.485,426.457C542.698,430.299 532.659,421.626 532.333,407.503C532.081,396.537 532.804,394.87 533.844,391.635Z" style="fill:rgb(18,2,58);"></path>
        <path d="M584.237,503.383C586.856,499.141 587.648,499.38 598.501,499.363C602.661,499.357 646.012,499.29 650.503,499.36C659.987,499.507 659.976,511.567 651.499,512.491C648.875,512.777 648.873,512.633 618.5,512.57C590.272,512.512 590.162,512.952 587.339,511.824C588.01,511.012 588.254,511.301 588.916,510.5C588.962,510.444 589.268,510.074 589.157,509.625C589.113,509.45 588.777,509.564 588.652,509.435C588.445,509.219 588.423,508.868 588.22,508.647C588.082,508.498 587.803,508.531 587.674,508.374C587.5,508.161 587.497,507.85 587.369,507.607C587.15,507.192 586.817,506.839 586.636,506.406C586.518,506.126 586.604,505.787 586.487,505.506C586.333,505.138 586.128,504.774 585.838,504.5C585.364,504.053 584.71,503.829 584.237,503.383Z" style="fill:rgb(178,132,251);"></path>
        <path d="M630.401,529.86C631.166,530.19 632.434,530.332 633.948,532.155C636.368,535.068 636.507,542.658 627.502,542.691C624.541,542.702 592.954,542.817 590.496,542.69C581.035,542.204 581.694,529.969 590.506,529.639C594.969,529.471 623.621,529.591 626.501,529.603C628.47,529.611 628.454,529.617 630.401,529.86Z" style="fill:rgb(176,129,250);"></path>
        <path d="M658.653,298.583C660.286,296.275 660.401,296.384 662.619,294.66C664.802,292.962 672.427,287.639 673.666,286.721C678.352,283.249 678.335,283.252 683.178,280.014C689.384,275.863 694.937,280.848 695.344,285.512C695.948,292.422 689.171,294.507 684.336,298.292C681.924,300.18 672.052,306.437 669.83,307.977C664.106,311.942 659.694,308.133 658.5,305.5C656.83,301.817 658.539,298.901 658.653,298.583Z" style="fill:rgb(199,160,250);"></path>
        <path d="M641.594,244.697C642.222,244.499 643.439,243.779 645.547,244.043C647.415,244.277 648.231,244.833 648.718,245.154C652.884,247.901 653.171,251.484 651.275,256.411C646.667,268.383 646.792,268.418 646.377,269.452C642.998,277.868 643.156,277.925 642.851,278.651C639.809,285.894 629.941,284.727 628.707,277.464C628.045,273.567 631.612,266.374 633.553,260.518C638.06,246.917 638.367,246.787 641.594,244.697Z" style="fill:rgb(197,158,249);"></path>
        <path d="M481.607,427.725C482.052,427.604 484.073,426.111 488.27,428.868C488.809,429.222 492.398,431.579 495.544,432.321C506.013,434.788 512.759,429.568 515.227,428.041C521.029,424.451 526.714,431.455 522.698,436.646C517.172,443.79 504.318,445.916 498.539,445.176C487.811,443.803 484.598,440.795 481.467,438.54C478.202,436.188 478.022,432.308 478.776,430.617C479.624,428.716 479.869,428.885 481.607,427.725Z" style="fill:rgb(20,3,62);"></path>
        <path d="M697.468,328.827C702.53,329.345 710.178,328.962 711.132,336.541C711.402,338.681 710.419,345.268 702.475,344.879C700.077,344.762 691.42,343.553 686.538,343.119C677.789,342.341 676.238,341.027 675.547,340.442C671.018,336.603 673.121,326.98 681.498,327.522C689.51,328.039 689.474,328.287 697.468,328.827Z" style="fill:rgb(195,154,249);"></path>
        
        <path d="M662.593,298.536C662.679,298.461 663.66,297.595 663.66,297.595C663.869,297.461 664.172,297.519 664.37,297.369C664.548,297.234 664.54,296.935 664.712,296.794C664.926,296.618 665.296,296.675 665.473,296.463C665.639,296.264 665.408,295.843 665.625,295.702C665.917,295.513 666.33,295.764 666.669,295.688C666.781,295.662 668.171,294.721 668.438,294.457C668.635,294.26 668.683,293.943 668.885,293.751C669.109,293.538 670.487,293.045 671.602,291.669C671.897,291.305 672.13,290.854 672.534,290.616C672.814,290.451 673.2,290.652 673.508,290.547C673.598,290.516 681.187,286.039 682.448,284.469C682.618,284.257 682.636,283.937 682.834,283.75C682.954,283.637 683.075,283.854 684.557,282.618C684.899,282.333 685.139,281.848 685.573,281.749C685.891,281.676 686.123,282.189 686.449,282.185C686.831,282.182 687.135,281.835 687.503,281.73C689.092,281.28 689.117,281.597 690.511,282.482C690.745,282.631 691.051,282.696 691.22,282.915C691.365,283.105 691.289,283.392 691.379,283.613C691.48,283.864 691.677,284.068 691.786,284.316C691.913,284.603 692.638,286.253 692.052,288.228C692.043,288.26 691.323,289.187 691.258,289.27C690.755,289.918 688.638,291.516 688.556,291.595C688.428,291.718 688.405,291.934 688.263,292.042C688.12,292.149 688.079,292.08 686.381,293.248C686.122,293.426 685.822,293.547 685.585,293.753C685.483,293.842 685.505,294.035 685.393,294.111C685.242,294.212 685.177,294.048 683.39,295.184C682.744,295.595 682.051,295.941 681.454,296.421C681.281,296.561 681.32,296.893 681.128,297.005C680.852,297.165 680.463,297.008 680.183,297.161C679.841,297.349 679.981,297.518 676.325,300.153C676.081,300.329 675.761,300.401 675.55,300.616C675.42,300.748 675.523,301.049 675.36,301.137C675.066,301.295 673.478,300.732 669.427,304.413C669.11,304.701 666.986,306.631 664.499,306.492C664.172,306.474 663.82,306.495 663.526,306.349C663.13,306.151 662.891,305.715 662.505,305.496C662.308,305.384 661.995,305.548 661.833,305.389C661.315,304.882 661.159,301.181 661.34,300.455C661.418,300.144 661.645,299.882 661.723,299.57L662.593,298.536Z" style="fill:rgb(176,129,250);"></path>
        <path d="M649.477,252.5C649.079,253.529 648.966,253.464 648.693,254.529C648.025,257.124 647.624,256.974 647.277,258.301C647.194,258.617 647.318,258.987 647.164,259.277C647.066,259.463 646.712,259.39 646.604,259.571C645.844,260.848 643.212,270.207 643.183,270.261C643.044,270.526 642.774,270.33 642.336,271.366C641.533,273.268 639.035,277.391 638.89,277.717C638.649,278.257 638.876,278.59 637.65,279.583C636.703,280.351 636.7,280.433 635.492,280.482C634.315,280.531 634.365,280.306 633.352,279.684C631.627,278.626 631.591,278.656 631.515,278.491C631.356,278.148 631.775,277.769 631.786,277.391C631.814,276.427 631.464,276.465 631.564,275.499C631.705,274.137 632.935,273.006 634.199,268.35C634.997,265.411 637.148,260.387 637.152,260.374C637.211,260.115 636.863,259.844 636.967,259.599C637.143,259.184 637.669,259.005 637.897,258.615C638.106,258.257 638.225,257.835 638.242,257.42C638.253,257.168 637.937,256.96 637.978,256.711C638.005,256.552 638.327,256.62 638.4,256.476C638.51,256.259 638.268,256.212 639.107,253.506C639.308,252.858 639.658,252.255 639.803,251.592C639.87,251.285 639.597,250.937 639.73,250.653C639.825,250.448 640.193,250.554 640.358,250.4C640.381,250.379 641.812,247.311 644.549,246.918C646.688,246.611 648.172,249.281 648.353,249.607C648.497,249.866 648.586,250.154 648.742,250.405C648.969,250.77 649.358,251.044 649.5,251.45C649.616,251.78 649.361,252.17 649.477,252.5Z" style="fill:rgb(176,128,251);"></path>
        <path d="M697.5,331.955C700.622,332.075 704.299,332.293 705.34,332.927C705.477,333.01 705.491,333.219 705.612,333.325C705.807,333.496 706.075,333.57 706.269,333.742C706.456,333.908 706.565,334.148 706.742,334.327C706.878,334.464 707.935,335.529 708.034,336.365C708.184,337.629 706.977,339.685 706.824,339.945C705.925,341.477 698.154,341.405 697.512,341.377C697.282,341.367 695.014,341.268 694.642,341.155C694.503,341.112 694.493,340.862 694.352,340.827C693.672,340.659 693.666,340.721 689.509,340.389C686.937,340.183 686.639,339.837 686.5,339.819C686.174,339.778 685.848,339.913 685.519,339.911C685.181,339.909 684.847,339.838 684.511,339.807C681.4,339.521 681.326,339.826 678.454,338.549C674.325,336.712 677.307,331.823 678.301,331.337C680.152,330.434 682.105,330.322 682.446,330.303C684.353,330.194 684.353,330.028 684.505,330.094C684.975,330.298 685.138,330.947 685.594,331.181C685.692,331.231 687.805,330.896 694.486,331.577C696.042,331.736 696.265,331.977 696.5,332.007C696.831,332.049 697.169,331.913 697.5,331.955Z" style="fill:rgb(175,128,251);"></path>
        
        <path d="M646.16,539.747C646.07,539.586 645.922,539.461 645.832,539.3C642.959,534.194 648.083,528.843 652.469,529.691C661.417,531.42 658.339,544.929 649.561,542.311C647.456,541.683 647.646,541.348 646.16,539.747Z" style="fill:rgb(178,132,249);"></path>
        
        <path d="M584.237,503.383C584.71,503.829 585.364,504.053 585.838,504.5C586.128,504.774 586.333,505.138 586.487,505.506C586.604,505.787 586.518,506.126 586.636,506.406C586.817,506.839 587.15,507.192 587.369,507.607C587.497,507.85 587.5,508.161 587.674,508.374C587.803,508.531 588.082,508.498 588.22,508.647C588.423,508.868 588.445,509.219 588.652,509.435C588.777,509.564 589.113,509.45 589.157,509.625C589.268,510.074 588.962,510.444 588.916,510.5C588.254,511.301 588.01,511.012 587.339,511.824C585.844,510.787 585.823,510.821 585.508,510.493C584.698,509.649 584.338,508.764 584.269,508.596C583.071,505.653 584.13,503.811 584.237,503.383Z" style="fill:rgb(182,140,247);"></path>
        <path d="M360.5,485.677L360.491,484.5L360.5,483.651C360.745,483.801 361.111,483.393 361.356,483.543C361.95,483.906 361.776,484.342 361.747,484.412C361.4,485.278 360.841,484.826 360.5,485.677Z" style="fill:rgb(160,102,250);"></path>
    </g>
</svg>